<svg
  xmlns="http://www.w3.org/2000/svg"
  width="1em"
  height="1em"
  viewBox="0 0 24 24"
  fill="#fff"
>
  <path
    d="M20.4 2H3.71C2.797 2 2 2.656 2 3.558v16.728C2 21.192 2.797 22 3.709 22h16.686c.917 0 1.605-.813 1.605-1.714V3.558C22.005 2.656 21.312 2 20.4 2zM8.2 18.671H5.334V9.762H8.2v8.909zM6.866 8.408h-.021c-.917 0-1.51-.683-1.51-1.537 0-.87.609-1.537 1.546-1.537.938 0 1.511.662 1.532 1.537 0 .854-.594 1.537-1.547 1.537zM18.67 18.67h-2.865V13.8c0-1.167-.417-1.964-1.454-1.964-.792 0-1.26.536-1.469 1.057-.078.188-.099.443-.099.704v5.074H9.919V9.762h2.865v1.24c.417-.594 1.068-1.448 2.584-1.448 1.88 0 3.303 1.24 3.303 3.912v5.205z"
  />
</svg>
